{
  "source": "C:\\Users\\Peter\\Desktop\\stuff\\MIUN\\quantitative_research\\video_compression\\videos\\BVI-HD\\BVI-HD_CDVL_videos\\ORIG\\Lightreef_1920x1080_30fps.mp4",
  "output": "C:\\Users\\Peter\\Desktop\\stuff\\MIUN\\quantitative_research\\video_compression\\compressed_videos\\BVI-HD\\h264\\2.5\\Lightreef_1920x1080_30fps_h264.mp4",
  "codec": "h264",
  "ok": "Input #0, mov,mp4,m4a,3gp,3g2,mj2, from 'C:\\Users\\Peter\\Desktop\\stuff\\MIUN\\quantitative_research\\video_compression\\videos\\BVI-HD\\BVI-HD_CDVL_videos\\ORIG\\Lightreef_1920x1080_30fps.mp4':\n  Metadata:\n    major_brand     : isom\n    minor_version   : 512\n    compatible_brands: isomiso2avc1mp41\n    encoder         : Lavf54.28.101\n  Duration: 00:00:05.00, start: 0.000000, bitrate: 361719 kb/s\n  Stream #0:0[0x1](und): Video: h264 (High 4:4:4 Predictive) (avc1 / 0x31637661), yuv420p(progressive), 1920x1080, 361715 kb/s, 30 fps, 30 tbr, 30 tbn (default)\n    Metadata:\n      handler_name    : VideoHandler\n      vendor_id       : [0][0][0][0]\n[out#0/mp4 @ 000001a794a0f200] Codec AVOption b:a (set bitrate (in bits/s)) has not been used for any stream. The most likely reason is either wrong type (e.g. a video option with no video streams) or that it is a private option of some decoder which was not actually used for any stream.\nStream mapping:\n  Stream #0:0 -> #0:0 (h264 (native) -> h264 (libx264))\nPress [q] to stop, [?] for help\n[libx264 @ 000001a794810c00] using cpu capabilities: MMX2 SSE2Fast SSSE3 SSE4.2 AVX FMA3 BMI2 AVX2\n[libx264 @ 000001a794810c00] profile High, level 5.0, 4:2:0, 8-bit\n[libx264 @ 000001a794810c00] 264 - core 165 r3222 b35605a - H.264/MPEG-4 AVC codec - Copyleft 2003-2025 - http://www.videolan.org/x264.html - options: cabac=1 ref=5 deblock=1:0:0 analyse=0x3:0x113 me=hex subme=8 psy=1 psy_rd=1.00:0.00 mixed_ref=1 me_range=16 chroma_me=1 trellis=2 8x8dct=1 cqm=0 deadzone=21,11 fast_pskip=1 chroma_qp_offset=-2 threads=18 lookahead_threads=3 sliced_threads=0 nr=0 decimate=1 interlaced=0 bluray_compat=0 constrained_intra=0 bframes=3 b_pyramid=2 b_adapt=1 b_bias=0 direct=3 weightb=1 open_gop=0 weightp=2 keyint=250 keyint_min=25 scenecut=40 intra_refresh=0 rc_lookahead=50 rc=cbr mbtree=1 bitrate=2500 ratetol=1.0 qcomp=0.60 qpmin=0 qpmax=69 qpstep=4 vbv_maxrate=2500 vbv_bufsize=2500 nal_hrd=none filler=0 ip_ratio=1.40 aq=1:1.00\nOutput #0, mp4, to 'C:\\Users\\Peter\\Desktop\\stuff\\MIUN\\quantitative_research\\video_compression\\compressed_videos\\BVI-HD\\h264\\2.5\\Lightreef_1920x1080_30fps_h264.mp4':\n  Metadata:\n    major_brand     : isom\n    minor_version   : 512\n    compatible_brands: isomiso2avc1mp41\n    encoder         : Lavf62.3.100\n  Stream #0:0(und): Video: h264 (avc1 / 0x31637661), yuv420p(tv, progressive), 1920x1080, q=2-31, 2500 kb/s, 30 fps, 15360 tbn (default)\n    Metadata:\n      encoder         : Lavc62.11.100 libx264\n      handler_name    : VideoHandler\n      vendor_id       : [0][0][0][0]\n    Side data:\n      cpb: bitrate max/min/avg: 2500000/0/2500000 buffer size: 2500000 vbv_delay: N/A\nframe=    0 fps=0.0 q=0.0 size=       0KiB time=N/A bitrate=N/A speed=N/A elapsed=0:00:00.53    \nframe=    0 fps=0.0 q=0.0 size=       0KiB time=N/A bitrate=N/A speed=N/A elapsed=0:00:01.17    \nframe=    0 fps=0.0 q=0.0 size=       0KiB time=N/A bitrate=N/A speed=N/A elapsed=0:00:01.73    \nframe=    0 fps=0.0 q=0.0 size=       0KiB time=N/A bitrate=N/A speed=N/A elapsed=0:00:02.32    \nframe=   11 fps=3.8 q=43.0 size=       0KiB time=00:00:00.23 bitrate=   1.6kbits/s speed=0.0803x elapsed=0:00:02.90    \nframe=   29 fps=8.3 q=41.0 size=       0KiB time=00:00:00.90 bitrate=   0.4kbits/s speed=0.257x elapsed=0:00:03.50    \nframe=   49 fps= 12 q=41.0 size=     256KiB time=00:00:01.56 bitrate=1338.9kbits/s speed=0.384x elapsed=0:00:04.07    \nframe=   60 fps= 13 q=41.0 size=     256KiB time=00:00:01.93 bitrate=1084.9kbits/s speed=0.42x elapsed=0:00:04.60    \nframe=   79 fps= 15 q=41.0 size=     512KiB time=00:00:02.50 bitrate=1677.9kbits/s speed=0.486x elapsed=0:00:05.14    \nframe=   95 fps= 17 q=41.0 size=     768KiB time=00:00:03.10 bitrate=2029.6kbits/s speed=0.546x elapsed=0:00:05.67    \nframe=  120 fps= 19 q=41.0 size=    1024KiB time=00:00:03.90 bitrate=2151.0kbits/s speed=0.627x elapsed=0:00:06.21    \nframe=  142 fps= 21 q=-1.0 size=    1024KiB time=00:00:04.56 bitrate=1837.0kbits/s speed=0.678x elapsed=0:00:06.73    \n[mp4 @ 000001a793cb9a40] Starting second pass: moving the moov atom to the beginning of the file\n[out#0/mp4 @ 000001a794a0f200] video:1343KiB audio:0KiB subtitle:0KiB other streams:0KiB global headers:0KiB muxing overhead: 0.192702%\nframe=  150 fps= 22 q=-1.0 Lsize=    1346KiB time=00:00:04.93 bitrate=2235.2kbits/s speed=0.725x elapsed=0:00:06.80    \n[libx264 @ 000001a794810c00] frame I:1     Avg QP:39.71  size: 67638\n[libx264 @ 000001a794810c00] frame P:38    Avg QP:40.81  size: 21932\n[libx264 @ 000001a794810c00] frame B:111   Avg QP:44.89  size:  4269\n[libx264 @ 000001a794810c00] consecutive B-frames:  0.7%  0.0%  6.0% 93.3%\n[libx264 @ 000001a794810c00] mb I  I16..4: 26.8% 66.9%  6.3%\n[libx264 @ 000001a794810c00] mb P  I16..4:  2.2%  2.7%  0.1%  P16..4: 52.8%  5.6%  5.1%  0.0%  0.0%    skip:31.5%\n[libx264 @ 000001a794810c00] mb B  I16..4:  0.0%  0.0%  0.0%  B16..8: 37.7%  0.6%  0.1%  direct: 0.5%  skip:61.1%  L0:41.0% L1:58.0% BI: 1.0%\n[libx264 @ 000001a794810c00] 8x8 transform intra:58.5% inter:85.4%\n[libx264 @ 000001a794810c00] direct mvs  spatial:91.0% temporal:9.0%\n[libx264 @ 000001a794810c00] coded y,uvDC,uvAC intra: 39.1% 51.9% 11.7% inter: 6.5% 11.0% 0.0%\n[libx264 @ 000001a794810c00] i16 v,h,dc,p: 22% 31% 12% 35%\n[libx264 @ 000001a794810c00] i8 v,h,dc,ddl,ddr,vr,hd,vl,hu:  5%  4% 14% 10% 16% 11% 18%  8% 15%\n[libx264 @ 000001a794810c00] i4 v,h,dc,ddl,ddr,vr,hd,vl,hu:  3%  3%  6% 11% 17% 12% 18%  9% 21%\n[libx264 @ 000001a794810c00] i8c dc,h,v,p: 53% 26% 11% 10%\n[libx264 @ 000001a794810c00] Weighted P-Frames: Y:47.4% UV:26.3%\n[libx264 @ 000001a794810c00] ref P L0: 51.1% 12.4% 16.2%  8.0%  7.3%  5.1%\n[libx264 @ 000001a794810c00] ref B L0: 93.4%  4.6%  1.4%  0.6%\n[libx264 @ 000001a794810c00] ref B L1: 98.7%  1.3%\n[libx264 @ 000001a794810c00] kb/s:2199.90\n",
  "seconds": 7.134831428527832,
  "probe_out": {}
}